<svg xmlns="http://www.w3.org/2000/svg" width="40" height="40" viewBox="-2.5 0 40 40"><path fill="#F25D5D" d="M17.391.343C7.916.343.236 8.024.236 17.499c0 7.634 4.992 14.087 11.887 16.312.812.15 1.53.561 2.074 1.139l3.195 4.321 3.176-4.323c.502-.539 1.18-.914 1.917-1.092 6.984-2.172 12.062-8.659 12.062-16.357 0-9.475-7.68-17.156-17.156-17.156z"/><g transform="translate(2.609 2.609)"><ellipse fill="#DD4E4E" cx="14.759" cy="15.788" rx="14.136" ry="14.148"/><path fill="#FFF" d="M14.829 26.091c-7.615 0-13.816-6.052-14.06-13.605C1.861 5.743 7.7.594 14.742.594c7.353 0 13.396 5.617 14.089 12.802-.692 7.124-6.696 12.695-14.002 12.695z"/><ellipse fill="#FFF" cx="14.741" cy="14.774" rx="14.154" ry="14.181"/><ellipse fill="#EACF80" cx="14.393" cy="14.252" rx="14.154" ry="14.181" transform="translate(.348 .522)"/><ellipse fill="#EACF80" cx="14.393" cy="14.912" rx="14.154" ry="14.18" transform="translate(.348 .522)"/><g transform="translate(.348 .522)"><linearGradient id="a" gradientUnits="userSpaceOnUse" x1="-450.986" y1="286.417" x2="-450.986" y2="285.417" gradientTransform="matrix(28.0617 0 0 -26.0678 12669.908 7466.35)"><stop offset="0" stop-color="#fff5df"/><stop offset="1" stop-color="#ffe7c1"/></linearGradient><path fill="url(#a)" d="M14.481 26.14C6.866 26.14.665 19.518.421 11.963 1.513 5.221 7.352.072 14.394.072c7.353 0 13.396 5.617 14.089 12.802-.691 7.124-6.695 13.266-14.002 13.266z"/></g><path fill="#F43434" d="M20.724 7.378c-1.427-.24-1.643 1.375-1.86 1.794-.217.418-.091.09-.742-.358-.65-.451-2.54-.03-2.972.359-.434.388-.062.747.373 1.077.433.33 2.506.179 2.972.358.464.179.03 2.124.743 2.154.71.03.805-1.975.743-2.871-.064-.898.743-2.513.743-2.513zM9.577 16.71c-1.797 2.094-2.23 6.223-1.858 6.82.37.6.805.03 1.113-.717.31-.747 1.487-4.965 1.859-5.384.37-.42.65.629 1.484 1.076.837.449 2.974.718 2.974.718-.372-.358-2.724-2.214-2.974-2.513-.248-.3-.681-1.586-.742-2.513-.06-.927.712-2.543 1.116-2.153.4.389 1.176.808 1.858.359.68-.448.71-1.137.372-1.077-.342.059-.527.059-1.115-.36-.588-.417-.99-.837-.742-1.435.249-.598 1.174-3.648 1.114-3.948-.93.089-1.393 1.286-1.86 2.154-.462.867-.37 1.794-.37 1.794s-.96-.746-1.115-1.076c-.154-.328 1.486-1.795 1.486-1.795s-2.878.958-3.343 1.077c-.464.119-.714.388-.372.717.34.33 2.01 2.004 2.229 2.154.215.15 1.053 1.527 0 1.795s-2.044.836-1.86 1.793c.188.958 1.085 2.154.746 2.514zm5.57-.36c.497.359 2.757 2.544 2.975 2.872.216.329.246.12.743-.717.496-.84.865.029 1.857-.718s1.486-3.59 1.486-3.59c-.215.09-.494.659-1.486.717-.99.06-3.748-2.333-4.088-2.512-.34-.18-1.268.329-1.486.719-.215.388-.061 1.076 0 1.435.063.359.527.568 0 .718-.525.149-.494.718 0 1.076zm3.346-1.077c.589.449.96.957 1.857.718 0 0-.836 1.105-1.486 1.076-.65-.03-.091-.418-.371-.718-.28-.298-1.054-1.196-1.115-1.435-.06-.237.527-.09 1.115.359zM7.349 6.3c.308.63 1.113.538 1.485.359.37-.18.589-.567.743-1.075.154-.51.743-.718.743-.718-.62-.21-.496-.39-1.487-.36-.992.03-1.797 1.166-1.484 1.794z"/><g transform="translate(.87 16.522)"><path fill="#CE995F" d="M13.689 11.567a.659.659 0 1 1 1.318 0 .659.659 0 0 1-1.318 0zm2.842-.561a.542.542 0 1 1 1.06-.226.542.542 0 0 1-1.06.226zm2.989-.783a.561.561 0 1 1 1.034-.434.561.561 0 0 1-1.034.434zm2.542-1.59a.525.525 0 1 1 .86-.604.525.525 0 0 1-.86.604zm2.587-2.765a.41.41 0 0 1-.01-.582.409.409 0 0 1 .58-.011.411.411 0 1 1-.57.593zm2.167-3.305a.325.325 0 1 1 .346-.553.328.328 0 0 1 .104.451.324.324 0 0 1-.45.102zM.283.381a.384.384 0 1 1 .263.722.384.384 0 0 1-.263-.722zm1.01 2.992a.455.455 0 1 1 .48.773.455.455 0 0 1-.48-.773zm1.729 2.441a.35.35 0 1 1 .484.505.35.35 0 0 1-.484-.505zm1.815 2.108a.507.507 0 1 1 .83.581.507.507 0 0 1-.83-.581zM7.48 9.544a.554.554 0 1 1 1.02.431.554.554 0 0 1-1.02-.431zm3.147 1.669a.48.48 0 0 1 .573-.371.48.48 0 0 1 .372.572.484.484 0 0 1-.945-.201z"/><circle fill="#EBC498" cx="14.64" cy="11.323" r="1"/><circle fill="#EBC498" cx="17.29" cy="10.622" r="1"/><circle fill="#EBC498" cx="20.341" cy="9.747" r="1"/><circle fill="#EBC498" cx="22.662" cy="8.042" r="1"/><circle fill="#EBC498" cx="25.108" cy="5.418" r="1"/><circle fill="#EBC498" cx="27.184" cy="2.167" r="1"/><circle fill="#EBC498" cx="11.274" cy="11.227" r="1"/><circle fill="#EBC498" cx="8.295" cy="9.633" r="1"/><circle fill="#EBC498" cx="5.464" cy="8.109" r="1"/><circle fill="#EBC498" cx="3.436" cy="5.997" r="1"/><circle fill="#EBC498" cx="1.787" cy="3.62" r="1"/><circle fill="#EBC498" cx=".606" cy=".68" r="1"/></g></g></svg>