<svg xmlns="http://www.w3.org/2000/svg" width="40" height="40" viewBox="-2.5 0 40 40"><path fill="#4B9CF6" d="M17.391.343C7.916.343.236 8.024.236 17.499c0 7.634 4.992 14.087 11.887 16.312.812.15 1.53.561 2.074 1.139l3.195 4.321 3.176-4.323c.502-.539 1.18-.914 1.917-1.092 6.984-2.172 12.062-8.659 12.062-16.357 0-9.475-7.68-17.156-17.156-17.156z"/><circle fill="#FFF" cx="14.95" cy="14.951" r="14.279" transform="translate(2.609 2.609)"/><path fill="#4B9CF6" d="M25.014 12.483c0-.863-.7-1.563-1.562-1.563H12.518c-.862 0-1.562.7-1.562 1.563v2.346a2.343 2.343 0 0 0 2.343 2.345 2.335 2.335 0 0 0 2.199-1.563h.288a2.334 2.334 0 0 0 2.199 1.563 2.337 2.337 0 0 0 2.199-1.563h.287a2.338 2.338 0 0 0 2.199 1.563 2.344 2.344 0 0 0 2.344-2.345v-2.346zm0 7.819c0-.863-.7-1.564-1.562-1.564 0 .863-.7 3.127-1.562 3.127h-7.81c-.862 0-1.562-2.264-1.562-3.127-.862 0-1.562.7-1.562 1.564v3.127c0 .863.7 1.563 1.562 1.563H23.45c.862 0 1.562-.7 1.562-1.563v-3.127z"/></svg>