<svg xmlns="http://www.w3.org/2000/svg" width="40" height="40" viewBox="-8 0 40 40"><path fill="#424547" d="M12.653 0c.613.112 1.233.197 1.839.342a11.689 11.689 0 0 1 8.815 9.656c.901 6.185-3.146 11.975-9.242 13.213-.424.086-.854.136-1.337.211v.409c.047 9.019.094 4.773.141 13.792 0 .18.008.366-.035.537a1.078 1.078 0 0 1-1.204.812c-.543-.079-.928-.535-.931-1.116l-.071-13.166c-.024-4.75-.048 3.763-.073-.987 0-.095-.008-.189-.008-.189-1.105-.316-2.211-.51-3.215-.94C3.049 20.741.546 17.485.063 12.845-.561 6.847 3.477 1.447 9.353.238c.469-.097.945-.159 1.418-.238h1.882z"/><ellipse opacity=".561" fill="#434547" cx="11.943" cy="38.476" rx="3.785" ry="1.524"/><ellipse fill="#FFF" cx="11.407" cy="11.487" rx="3.259" ry="3.282"/></svg>