<svg width="60" height="60" xmlns="http://www.w3.org/2000/svg" xmlns:xlink="http://www.w3.org/1999/xlink"><defs><ellipse id="a" cx="30" cy="30" rx="29.754" ry="29.732"/></defs><g fill="none" fill-rule="evenodd"><use fill="#FFF" xlink:href="#a"/><ellipse stroke="#E6EBEF" cx="30" cy="30" rx="29.254" ry="29.232"/><path d="M.697 24.811A29.894 29.894 0 0 0 .246 30C.246 46.42 13.567 59.732 30 59.732S59.754 46.42 59.754 30c0-1.892-.177-3.743-.515-5.537l-58.542.348z" fill="#FFF"/><circle stroke="#333" stroke-width="1.5" fill="#FFF" cx="30" cy="30" r="25.556"/><path d="M24.467 19.697a8.537 8.537 0 0 0-3.175-.769 15.856 15.856 0 0 0-3.434.217c-1.172.2-2.302.371-3.392.516l1.726 22.543 6.414-4.463-2.396-5.989c.905-.418 1.922-.903 3.05-1.454 1.127-.55 2.107-1.209 2.94-1.973.833-.764 1.388-1.652 1.665-2.664.276-1.011.016-2.189-.781-3.532-.745-1.163-1.618-1.973-2.617-2.432zm-1.59 5.69c-.484.53-1.33.939-2.535 1.225l-.468-4.055c1.017-.193 1.84-.145 2.469.145.629.29.996.677 1.102 1.161.107.485-.083.993-.567 1.524zm24.893-4.753l-8.123-1.516-5.15 6.13.193-6.13-4.95.422.63 18.626 4.818 1.559.241-7.273 5.27 5.925 5.094-2.148-7.521-8.405 9.498-7.19z" fill-rule="nonzero" fill="#333"/></g></svg>