<svg xmlns="http://www.w3.org/2000/svg" width="65" height="12" viewBox="0 -1.5 65 12"><path fill="#FFCF1C" d="M7.088 5.586c.105.487.197.928.277 1.322.037.166.071.333.102.499a40.9 40.9 0 0 0 .194.98c.019.123-.009.205-.083.246a.528.528 0 0 1-.25.061c-.031 0-.076-.012-.134-.033s-.103-.039-.133-.052L4.647 7.204a76.792 76.792 0 0 1-1.65.952c-.151.086-.288.166-.411.24-.123.074-.23.136-.319.186-.089.049-.149.08-.181.092a.318.318 0 0 1-.19.033.417.417 0 0 1-.176-.069.34.34 0 0 1-.115-.134.247.247 0 0 1-.019-.162l.046-.181c.024-.095.052-.21.083-.342l.107-.439.125-.49.314-1.294c-.364-.314-.69-.595-.98-.841l-.365-.311c-.12-.101-.228-.194-.324-.277l-.235-.203-.102-.088a1.14 1.14 0 0 1-.19-.226.367.367 0 0 1-.06-.254.322.322 0 0 1 .102-.203.375.375 0 0 1 .185-.093l2.856-.259L4.211.364a.753.753 0 0 1 .158-.255.365.365 0 0 1 .277-.106c.062 0 .116.014.162.042.046.028.085.06.116.097a.75.75 0 0 1 .078.111l.052.092 1.035 2.477 2.857.269a.655.655 0 0 1 .259.111c.05.043.074.111.074.203a.353.353 0 0 1-.078.227 9.904 9.904 0 0 1-.2.235L7.088 5.586zm13.929 0c.105.487.197.928.277 1.322.038.166.07.333.102.499s.06.318.087.453a45.432 45.432 0 0 1 .107.527c.019.123-.01.205-.083.246a.528.528 0 0 1-.25.061c-.031 0-.076-.012-.134-.033s-.103-.039-.134-.052l-2.413-1.405a77.027 77.027 0 0 1-1.65.952c-.151.086-.288.166-.412.24a9.074 9.074 0 0 1-.32.186c-.088.049-.148.08-.18.092a.312.312 0 0 1-.188.033.421.421 0 0 1-.177-.069.349.349 0 0 1-.115-.134.24.24 0 0 1-.018-.162c.006-.025.02-.085.046-.181.024-.095.052-.21.083-.342.03-.132.066-.278.106-.439l.125-.49.314-1.294c-.364-.314-.69-.595-.98-.841l-.365-.311c-.12-.101-.228-.194-.324-.277l-.235-.203-.102-.088a1.071 1.071 0 0 1-.19-.226.367.367 0 0 1-.06-.254.318.318 0 0 1 .103-.203.364.364 0 0 1 .184-.093l2.856-.259L18.14.364a.753.753 0 0 1 .158-.255.365.365 0 0 1 .277-.106c.062 0 .116.014.162.042.046.028.084.06.115.097a.845.845 0 0 1 .079.111c.022.037.039.068.05.092l1.037 2.477 2.857.269c.123.031.209.068.259.111s.074.111.074.203a.353.353 0 0 1-.078.227 12.48 12.48 0 0 1-.2.235l-1.913 1.719zm13.928 0a137.27 137.27 0 0 1 .38 1.821c.03.166.06.317.087.453s.051.251.068.347c.02.096.031.156.037.18.02.123-.008.205-.082.246a.53.53 0 0 1-.25.06c-.03 0-.075-.012-.134-.033s-.103-.038-.133-.051l-2.414-1.405a77.027 77.027 0 0 1-1.65.952c-.15.086-.288.166-.412.24-.123.074-.23.136-.319.186-.089.049-.149.08-.18.092a.318.318 0 0 1-.19.033.422.422 0 0 1-.176-.069.34.34 0 0 1-.115-.134.24.24 0 0 1-.018-.162l.046-.181c.024-.095.052-.21.083-.342.031-.132.066-.278.106-.439l.125-.49.314-1.294c-.364-.314-.69-.595-.98-.841l-.365-.311c-.12-.101-.228-.194-.323-.277l-.236-.203-.102-.088a1.107 1.107 0 0 1-.19-.226.372.372 0 0 1-.06-.254.318.318 0 0 1 .102-.203.37.37 0 0 1 .185-.093l2.856-.259L32.068.364a.768.768 0 0 1 .158-.255.365.365 0 0 1 .277-.106c.062 0 .115.014.162.042.046.028.084.06.115.097a1.155 1.155 0 0 1 .13.203l1.035 2.477 2.857.269a.66.66 0 0 1 .26.111c.05.043.073.111.073.203a.349.349 0 0 1-.079.227 7.33 7.33 0 0 1-.197.235l-1.914 1.719zm13.928 0a112.372 112.372 0 0 1 .467 2.274 37.353 37.353 0 0 1 .107.527c.018.123-.01.205-.084.246a.52.52 0 0 1-.248.06c-.03 0-.075-.012-.134-.033s-.104-.038-.135-.051l-2.412-1.405a81.773 81.773 0 0 1-1.651.952c-.151.086-.288.166-.411.24s-.23.136-.32.186c-.088.049-.148.08-.18.092a.32.32 0 0 1-.19.033.422.422 0 0 1-.176-.069.34.34 0 0 1-.115-.134.247.247 0 0 1-.02-.162c.008-.025.022-.085.047-.181a13.7 13.7 0 0 0 .084-.342c.03-.133.066-.278.105-.439l.125-.49.314-1.294A136.358 136.358 0 0 0 42.7 4.444c-.12-.101-.227-.194-.323-.277l-.235-.203-.102-.088a1.102 1.102 0 0 1-.19-.226c-.052-.084-.072-.168-.06-.254s.047-.154.102-.203a.375.375 0 0 1 .185-.093l2.856-.259L45.997.364a.753.753 0 0 1 .158-.255.367.367 0 0 1 .278-.106c.062 0 .115.014.16.042a.43.43 0 0 1 .117.097c.03.037.057.074.078.111l.052.092 1.035 2.477 2.857.269a.65.65 0 0 1 .258.111c.05.043.074.111.074.203a.353.353 0 0 1-.078.227 9.568 9.568 0 0 1-.2.235l-1.913 1.719zm13.928 0a113.877 113.877 0 0 1 .38 1.821c.03.166.06.317.087.453.028.136.052.251.07.347.02.096.03.156.036.18.02.123-.008.205-.08.246a.537.537 0 0 1-.25.06c-.032 0-.077-.012-.136-.033s-.103-.038-.133-.051l-2.414-1.405a77.027 77.027 0 0 1-1.65.952c-.15.086-.287.166-.41.24-.125.075-.23.136-.32.186a1.92 1.92 0 0 1-.182.092.312.312 0 0 1-.188.033.417.417 0 0 1-.176-.069.343.343 0 0 1-.116-.134.26.26 0 0 1-.019-.162 7.03 7.03 0 0 1 .047-.181c.023-.095.052-.21.082-.342.032-.132.067-.278.108-.439l.124-.49.314-1.294c-.364-.314-.69-.595-.979-.841l-.365-.311c-.122-.101-.229-.194-.325-.277l-.236-.203a4.63 4.63 0 0 1-.102-.088 1.135 1.135 0 0 1-.189-.226c-.052-.083-.072-.168-.06-.254s.046-.154.102-.203.117-.081.185-.093l2.857-.259L59.925.364a.74.74 0 0 1 .16-.255.363.363 0 0 1 .276-.106.31.31 0 0 1 .162.042c.046.028.084.06.115.097a1.097 1.097 0 0 1 .129.203l1.035 2.477 2.857.269c.123.031.21.068.26.111s.072.111.072.203a.348.348 0 0 1-.078.227 7.33 7.33 0 0 1-.197.235l-1.915 1.719z"/></svg>